{"title":"Madagascar 3 Europes Most Wanted 2012 DVDRiP XviD AC3 - ILLUMINA","uid":7691657,"size":1656436805,"categoryP":"video","categoryS":"movies","magnet":"?xt=urn:btih:664c41bcacfe9118695fc814256c52eaf9b07752&amp;dn=Madagascar+3+Europes+Most+Wanted+2012+DVDRiP+XviD+AC3+-+ILLUMINA&amp;tr=udp%3A%2F%2Ftracker.openbittorrent.com%3A80&amp;tr=udp%3A%2F%2Fopen.demonii.com%3A1337&amp;tr=udp%3A%2F%2Ftracker.coppersurfer.tk%3A6969&amp;tr=udp%3A%2F%2Fexodus.desync.com%3A6969","seeders":1,"leechers":0,"uploader":"Gh0stNet","files":4,"time":1349222425,"description":"Madagascar 3 Europe's Most Wanted 2012 DVDRiP XviD AC3 - ILLUMINATI\n\n\nVideo\n\nID : 0\nFormat : MPEG-4 Visual\nFormat profile : Advanced Simple@L5\nFormat settings, BVOP : 2\nFormat settings, QPel : No\nFormat settings, GMC : No warppoints\nFormat settings, Matrix : Default (H.263)\nMuxing mode : Packed bitstream\nCodec ID : XVID\nCodec ID/Hint : XviD\nDuration : 1h 33mn\nBit rate : 1 950 Kbps\nWidth : 720 pixels\nHeight : 384 pixels\nDisplay aspect ratio : 1.85:1\nFrame rate : 23.976 fps\nColor space : YUV\nChroma subsampling : 4:2:0\nBit depth : 8 bits\nScan type : Progressive\nCompression mode : Lossy\nBits/(Pixel*Frame) : 0.294\nStream size : 1.27 GiB (83%)\nWriting library : XviD 64\n\n\nAudio\n\nID : 1\nFormat : AC-3\nFormat/Info : Audio Coding 3\nMode extension : CM (complete main)\nFormat settings, Endianness : Big\nCodec ID : 2000\nDuration : 1h 33mn\nBit rate mode : Constant\nBit rate : 384 Kbps\nChannel(s) : 6 channels\nChannel positions : Front: L C R, Side: L R, Sampling rate : 48.0 KHz\nBit depth : 16 bits\nCompression mode : Lossy\nStream size : 257 MiB (16%)\nAlignment : Aligned on interleaves\nInterleave, duration : 42 ms (1.00 video frame)\n\n\nSource: OWN DVDR (RENTAL)\n &lt;a href=&quot;\nhttp://i.imgbox.com/acz1f9a0.png&quot; rel=&quot;nofollow&quot; target=&quot;_NEW&quot;&gt;\nhttp://i.imgbox.com/acz1f9a0.png&lt;/a&gt; &lt;a href=&quot;\nhttp://i.imgbox.com/abhmx16d.png&quot; rel=&quot;nofollow&quot; target=&quot;_NEW&quot;&gt;\nhttp://i.imgbox.com/abhmx16d.png&lt;/a&gt; &lt;a href=&quot;\nhttp://i.imgbox.com/adwcdr3K.png&quot; rel=&quot;nofollow&quot; target=&quot;_NEW&quot;&gt;\nhttp://i.imgbox.com/adwcdr3K.png&lt;/a&gt; &lt;a href=&quot;\nhttp://i.imgbox.com/abeB7yJH.png&quot; rel=&quot;nofollow&quot; target=&quot;_NEW&quot;&gt;\nhttp://i.imgbox.com/abeB7yJH.png&lt;/a&gt;","torrent":{"xt":"urn:btih:664c41bcacfe9118695fc814256c52eaf9b07752","amp;dn":"Madagascar+3+Europes+Most+Wanted+2012+DVDRiP+XviD+AC3+-+ILLUMINA","amp;tr":["udp%3A%2F%2Ftracker.openbittorrent.com%3A80","udp%3A%2F%2Fopen.demonii.com%3A1337","udp%3A%2F%2Ftracker.coppersurfer.tk%3A6969","udp%3A%2F%2Fexodus.desync.com%3A6969"],"infoHash":"664c41bcacfe9118695fc814256c52eaf9b07752","infoHashBuffer":{"type":"Buffer","data":[102,76,65,188,172,254,145,24,105,95,200,20,37,108,82,234,249,176,119,82]},"announce":[],"urlList":[]}}